<?xml version="1.0" encoding="UTF-8"?>
<svg id="Layer_1" data-name="Layer 1" xmlns="http://www.w3.org/2000/svg" viewBox="0 0 573.59 311.01">
  <defs>
    <style>
      .cls-1 {
        fill: #2f5b28;
      }

      .cls-1, .cls-2 {
        stroke-width: 0px;
      }

      .cls-2 {
        fill: #cbd43b;
      }
    </style>
  </defs>
  <g>
    <path class="cls-2" d="M213.72,50.24c-9.55-18.28-24.96-27.76-45.46-28.12-20.63.4-35.97,9.64-45.29,27.26-9.4,17.78-7.62,35.65,3.68,52.35,9.96,14.73,23.31,26.09,37.48,36.49.22.16.48.29.77.4.11-9.46-.08-12.78-.08-12.78h.05c-.05-3.02-.61-6.17-2.14-8.79-3.37-5.8-10.08-8.44-12.71-14.99-2.69-6.68-3.09-14.36-3.09-21.47,0-18.51,9.52-33.51,21.26-33.51.35,0,.69.01,1.04.04.12,0,.25.03.37.04.22.02.43.04.65.08.15.02.3.05.46.08.18.03.36.07.54.11.17.04.34.08.5.13.16.04.32.09.47.13.18.05.36.11.53.17.14.05.28.1.42.15.19.07.37.14.56.22.12.05.25.11.37.17.19.09.39.18.58.27.11.05.21.11.32.17.2.11.41.21.61.33,0,0,.01,0,.02,0h0c8.08,4.75,13.83,17.02,13.83,31.41,0,10.01-1.44,17.3-3.89,22.47-.02.05-.04.1-.07.14-.2.41-.4.81-.62,1.2-.03.06-.06.11-.09.16-.21.38-.43.75-.66,1.11-.02.04-.05.07-.07.11-.47.73-.97,1.41-1.49,2.03-.03.04-.06.08-.1.12-.25.29-.5.57-.76.84-.04.05-.09.09-.13.14-.26.26-.52.52-.79.76-.04.03-.08.07-.11.1-.28.25-.57.49-.86.71-.45.66-.94,1.28-1.49,1.88-.24.25-.47.5-.69.75-.08.09-.15.17-.23.26-.14.16-.28.32-.42.48-.09.11-.18.22-.27.33-.11.13-.22.27-.33.4-.1.12-.19.24-.29.36-.09.12-.19.24-.28.36-.1.13-.19.26-.29.39-.08.11-.15.21-.23.32-.1.14-.19.28-.29.42-.06.09-.12.19-.18.28-.1.15-.2.31-.29.46-.04.07-.08.14-.12.21-.5.86-.92,1.75-1.25,2.69,0,.02-.02.04-.02.06-.08.22-.15.45-.21.67-.01.05-.03.09-.04.14-.06.22-.12.45-.18.68-.01.05-.02.1-.04.15-.05.23-.1.47-.15.71,0,.05-.02.09-.02.14-.04.25-.08.51-.12.77,0,.03,0,.05,0,.08-.04.28-.07.57-.09.86,0,0,0,0,0,0-.05.62-.08,1.27-.08,1.95h-.04c-.07,1.13-.23,4.58-.25,11.53,13.91-10.17,27.03-21.21,37.04-35.54,11.55-16.53,14.23-33.89,4.75-52.03Z"/>
    <path class="cls-2" d="M209.74,207.22c-9.96-14.73-23.31-26.09-37.48-36.49-.22-.16-.49-.3-.79-.41-.05,7.35.1,10,.1,10h-.05c.05,2.94.61,6.01,2.14,8.57,1.21,2.03,3.27,3.34,4.91,4.97,1.82,1.8,2.88,4.06,3.77,6.44,1.1,2.96,1.78,6.33,1.57,9.51l-4.02,48.57s-.07,1.23-.95,1.23c0,0-1.13,0-1.09-1.49l-.06-46.01s0,0,0,0v-2.05c-.06-1.85-1.59-1.91-1.59-1.91-1.41.17-1.62,1.53-1.62,1.53l-2.43,48.61c-.14,1.28-1.02,1.15-1.02,1.15-.99-.04-1.02-.98-1.02-.98l-.34-48.91s.09-1.57-1.57-1.63c0,0-1.79-.06-1.57,1.63l-.34,48.91s-.03.94-1.02.98c0,0-.88.13-1.02-1.15l-2.43-48.61s-.21-1.36-1.62-1.53c0,0-1.54.06-1.59,1.91l-.06,48.06c.03,1.49-1.09,1.49-1.09,1.49-.88,0-.95-1.23-.95-1.23,0,0-4.01-48.53-4.02-48.57-.21-2.59.27-5.28,1.02-7.79,0,0,0,0,0,0,0,0,0-.01,0-.02.15-.5.31-1,.48-1.49.92-2.63,2.12-5.03,4.07-7.06.34-.35.66-.7.97-1.04.07-.08.15-.16.22-.24.31-.35.61-.69.89-1.04,0,0,0,0,0,0,.28-.34.54-.68.79-1.03.05-.06.09-.13.14-.19.51-.71.95-1.42,1.34-2.16.02-.05.05-.09.07-.14.38-.76.7-1.55.96-2.38.01-.03.02-.07.03-.1.13-.43.24-.86.33-1.32,0,0,0,0,0,0,.24-1.19.36-2.47.36-3.92h.04c.06-.95.19-3.63.24-8.75-13.9,10.17-27.02,21.2-37.03,35.52-11.55,16.53-14.23,33.89-4.75,52.03,9.55,18.28,24.96,27.76,45.46,28.12,20.63-.4,35.97-9.64,45.29-27.26,9.4-17.78,7.62-35.65-3.68-52.35Z"/>
  </g>
  <path class="cls-1" d="M189.22,158.55c1.46,0,2.92,0,4.38,0,36.54,0,61.9.01,98.44-.05,1.46,0,2.77.91,3.27,2.28,5.24,14.28,10.6,28.51,15.91,42.77,5.88,15.81,11.75,31.64,17.62,47.46,5.82,15.69,11.65,31.37,17.47,47.07.92,2.49,1.82,4.98,2.73,7.51s-.96,5.28-3.69,5.29c-5.54.03-13.25.06-13.68.06-11.18,0-5.15-.04-16.33.06-1.74.01-2.43-.62-2.98-2.14-3.42-9.52-6.96-18.99-10.36-28.51-.61-1.71-1.42-2.27-3.28-2.26-16.49.09-32.98.08-49.47.01-1.29,0-2.43.8-2.87,2.02-3.38,9.5-6.89,18.96-10.27,28.47-.62,1.74-1.39,2.43-3.39,2.42-19.56-.15-27.94-.16-47.5-.22-.4,0-.81-.05-1.28-.35,2.59-.88,5.19-1.75,7.78-2.65,8.62-2.97,16.95-6.57,24.12-12.33,17.56-14.09,27.6-32.49,29.63-54.8,1.4-15.37-2.68-29.96-9.99-43.6-5.9-11.01-14.33-20.53-24.6-27.65-6.41-4.44-13.28-8.05-20.88-10.09-.31-.08-.6-.24-.9-.37.04-.14.07-.28.11-.42ZM274.13,197.39c-5.97,17.84-9.63,35.11-15.44,52.5h36.85c-7.12-17.47-14.15-34.71-21.41-52.5Z"/>
  <path class="cls-1" d="M354.4,7.86c-.02-4.31,3.48-7.82,7.79-7.82h4.26c20.33.04,30.12-.13,50.45.19,11.88.19,22.86,3.62,32.05,11.56,17.32,14.97,17.69,38.47,9.61,54.39-4.49,8.84-11.21,15.39-19.88,20.04-.43.23-.86.47-1.27.73-.1.07-.15.22-.36.55,2.16,2.95,4.33,6.01,6.59,8.99,3.42,4.5,6.69,9.13,10.43,13.36,5.66,6.4,12.8,10.02,21.55,9.91.27,0,.54.07.94.12.05.64.13,1.25.13,1.85-.04,9.57-.13,19.14-.11,28.71,0,1.72-.47,2.31-2.25,2.22-13.16-.64-25.54-3.89-36.5-11.39-6.23-4.26-11.11-10.01-15.22-16.3-6.37-9.75-12.53-19.65-18.72-29.52-.57-.91-1.57-1.44-2.64-1.42-3.63.07-7.27.02-11.15.02v2.42c0,17.95-.03,35.91.04,53.86,0,1.93-.48,2.43-2.65,2.34-3.71-.14,3.71-.02,0,0h-30.53c-1.65,0,1.65-.08,0,0-2.06.09-2.6-.42-2.6-2.24.04-49.46.03-92.62.04-142.08,0-.07,0-.23,0-.48ZM387.8,66.02c9.15,0,18.09.22,27.01-.06,10.16-.31,16.52-6.51,17.32-16.61.47-5.98-.62-11.59-5.42-15.83-3.88-3.43-8.57-4.52-13.59-4.54-7.82-.03-15.65-.02-23.47,0-.59,0-1.19.11-1.84.17v36.87Z"/>
  <path class="cls-1" d="M530.56,249.24h-18.02c-4.2,0-7.61,3.41-7.61,7.61v46.3c0,4.2-3.41,7.61-7.61,7.61h-20.48c-4.2,0-7.61-3.41-7.61-7.61v-136.86c0-4.2,3.41-7.61,7.61-7.61h20.33c4.2,0,7.61,3.41,7.61,7.61v44.09c0,4.2,3.41,7.61,7.61,7.61h18.01c4.2,0,7.61-3.41,7.61-7.61v-44.09c0-4.2,3.41-7.61,7.61-7.61h20.33c4.2,0,7.61,3.41,7.61,7.61v136.92c0,4.2-3.41,7.61-7.61,7.61h-20.19c-4.2,0-7.61-3.41-7.61-7.61v-46.36c0-4.2-3.41-7.61-7.61-7.61Z"/>
  <path class="cls-1" d="M321.67.14h19.98c4.16,0,7.54,3.37,7.54,7.54,0,4.81,0,10.2,0,10.62,0,30.6,0,45.37,0,75.98,0,11.69-2.42,22.76-8.8,32.7-5.71,8.9-13.68,15.19-23.28,19.49-9.42,4.22-19.41,5.64-29.61,5.76-8.35.1-16.71-.23-25.07-.21-24.86.06-49.73.2-74.59.3-.54,0-1.07-.05-1.3-.06,36.48-12.24,57.71-36.8,58.55-76.29.37-17.47-6.21-33.37-16.83-47.34-10.64-14-24.52-23.37-41.41-28.43h66.18c3.32,0,6.01,2.69,6.01,6.01v13.16c0,29.28,0,41.93,0,71.2,0,5.36.74,10.64,3.36,15.39,4.54,8.23,11.99,11.86,21.02,12.37,3.72.21,7.59-.02,11.22-.82,11.03-2.41,17.29-9.95,18.89-21.66.25-1.82.32-3.67.33-5.51.06-29.29.04-42.75.04-72.04V7.91c0-4.29,3.48-7.76,7.76-7.76Z"/>
  <path class="cls-1" d="M458.11,190.25c-4.82,3.78-9.56,7.49-14.2,11.13-3.99,3.13-9.65,2.94-13.42-.46-1.16-1.05-2.35-2.03-3.62-2.88-11.29-7.57-23.6-8.62-36.2-3.92-10.39,3.87-16.73,11.95-20.24,22.14-4.01,11.62-3.9,23.42.6,34.88,5.4,13.76,15.65,22.17,30.05,25.35,11.37,2.51,22.67,1.79,33.68-1.94,2.62-.89,5.2-1.92,7.8-3,4.35-1.81,9.35.16,11.3,4.45,1,2.19,1.92,4.23,2.36,5.19,3.04,6.67,3.22,7.15,6.32,13.79.63,1.34.51,2.04-.82,2.83-10.54,6.21-21.83,10.2-33.97,11.85-12,1.62-24,1.59-35.9-.57-17.01-3.08-31.67-10.65-43.24-23.71-8.76-9.88-13.87-21.53-16.14-34.45-2.6-14.78-2.48-29.54,2.04-43.95,7.36-23.46,23.59-38.06,46.71-45.25,11.51-3.57,23.37-3.74,35.3-2.41,12.91,1.44,24.51,6,34.44,14.42,2.86,2.43,5.35,5.3,7.89,8.08h0c2.25,2.48,1.93,6.35-.71,8.41Z"/>
  <path class="cls-1" d="M150.84,310.77c-23.4,0-46.81.09-70.21-.03-15.01-.08-29.51-2.75-42.73-10.22-16.53-9.35-27.87-23-33.06-41.44-4.22-15-4.87-30.2-1.56-45.41,6.28-28.84,24.78-45.9,52.78-53.13,5.54-1.43,11.46-1.77,17.22-1.84,20.26-.23,40.53-.13,60.79-.16,4.1,0,8.2,0,12.37.48-.9.26-1.81.49-2.69.78-11.97,4.01-22.68,10.18-31.59,19.15-3.23,3.25-5.96,7.02-8.71,10.71-1,1.34-1.98,1.83-3.6,1.82-9.22-.03-18.46-.29-27.66.18-14.88.77-24.83,8.99-30.48,22.31-4.48,10.56-4.63,21.63-1.73,32.68,3.16,12.04,10.47,20.87,21.55,26.41,6.19,3.09,12.89,4.55,19.83,4.63,6.57.08,13.14.08,19.7-.02,1.79-.03,2.86.48,3.93,1.98,9.83,13.77,22.73,23.51,38.81,28.9,2.31.78,4.72,1.29,7.08,1.93l-.04.28Z"/>
  <path class="cls-1" d="M.61,7.63C-1.22,4.19,1.28.05,5.18.05c8.52,0,21.06,0,27.44-.05,1.63-.01,2.44.49,3.18,1.96,9.41,18.7,18.89,37.37,28.36,56.04.31.61.67,1.2,1.22,2.19.87-1.75,1.58-3.21,2.32-4.66,5.29-10.39,10.59-20.76,15.87-31.16,3.85-7.59,7.69-15.18,11.48-22.8.52-1.06,1.08-1.56,2.34-1.56,16.56.04,33.12.03,49.68.03.4,0,.79.07,1.21.11-36.25,11.8-56.72,36.05-59.36,74.52,2.54,38.24,21.26,64.38,57.62,77.41-.47.02-1.13.08-1.79.08-32,0-64-.01-96,.05-1.97,0-2.6-.45-2.6-2.52.08-18.3.06-36.61,0-54.92,0-1.26-.32-2.5-.91-3.62-9.91-18.58-19.88-37.12-29.82-55.68C11.52,28.18,4.87,15.67.61,7.63Z"/>
</svg>